<svg xmlns="http://www.w3.org/2000/svg" width="512" height="512"><g><title>background</title><rect id="canvas_background" width="582" height="402" x="-1" y="-1" fill="none"/></g><g><title>Layer 1</title><path id="svg_2" fill="#08c" d="m147.341995,133.572998c2.978012,-13.964996 10.543991,-26.231995 21.059006,-35.133995c11.043991,-9.375 25.341995,-15.021004 40.949005,-15.021004c5.923996,0 11.710999,0.834 17.190994,2.363998c4.587997,1.278999 8.955994,3.087006 13.046005,5.285004c6.425995,-9.319 14.992996,-17.081001 24.951996,-22.588005c10.570007,-5.869995 22.699005,-9.180996 35.578979,-9.180996c20.278015,0 38.666016,8.233997 51.992004,21.531002c13.324005,13.353996 21.55899,31.712997 21.55899,52.019997c0,1.947006 -0.083984,3.921997 -0.250977,5.897003l-0.028015,0.223999c2.727997,-0.863007 5.509003,-1.585999 8.317993,-2.143005c4.618011,-0.917999 9.403015,-1.390991 14.243011,-1.390991c20.308014,0 38.693024,8.233002 51.990997,21.55899c13.325012,13.324005 21.559021,31.712997 21.559021,51.992004c0,2.585999 -0.139008,5.229004 -0.416992,7.871002c-0.22403,2.003998 -0.501007,3.979004 -0.86203,5.897995c5.368011,5.591003 9.764008,12.156006 12.824005,19.416c3.199005,7.595001 4.951996,15.912018 4.951996,24.59201c0,17.524994 -7.094971,33.354004 -18.554993,44.84198c-11.460999,11.460999 -27.317993,18.555023 -44.842987,18.555023l-120.312012,0l0,16.302002l12.656982,12.684998c5.119019,-4.895996 15.607025,-14.688019 15.63501,-14.714996c1.390991,-1.279022 3.53299,-1.169006 4.812988,0.222992c1.252014,1.362 1.16803,3.531982 -0.223999,4.783997c-0.027985,0.056 -10.708984,9.985992 -15.409973,14.493011l20.945984,20.946991c0.613007,0.610992 1.002014,1.475006 1.002014,2.419983l0,44.259003c1.612976,0.528015 3.060974,1.445007 4.227997,2.614014c1.975983,1.975006 3.197998,4.673004 3.197998,7.677002c0,2.977997 -1.222992,5.674988 -3.170013,7.651001c-2.001984,1.975006 -4.700989,3.197998 -7.677979,3.197998c-2.976013,0 -5.703003,-1.223999 -7.650024,-3.197998c-1.974976,-1.97702 -3.198975,-4.674011 -3.198975,-7.651001c0,-3.003998 1.224976,-5.701996 3.171997,-7.677002l0.277985,-0.222992c1.112,-1.057007 2.476013,-1.891998 3.977997,-2.391998l0,-42.868011l-38.415985,-38.416016c-0.667023,-0.667999 -1.002014,-1.530975 -1.002014,-2.42099l0,-17.691986l-16.188995,0l0,21.948975l38.75,38.75c0.612,0.612 1.002014,1.475006 1.002014,2.420013l0,6.121002c1.583984,0.527008 3.031982,1.445007 4.22699,2.614014c1.947998,1.946991 3.174011,4.672974 3.174011,7.648987c0,3.003998 -1.197021,5.701996 -3.174011,7.649994c-1.973999,1.975006 -4.671997,3.197998 -7.64801,3.197998c-3.003998,0 -5.72998,-1.223999 -7.678986,-3.17099l-0.222015,-0.251007c-1.837006,-1.945984 -2.949005,-4.562988 -2.949005,-7.427002c0,-2.97699 1.225006,-5.701996 3.171021,-7.648987c1.169006,-1.169006 2.643005,-2.087006 4.256989,-2.614014l0,-4.700989l-6.063995,-6.063995l-12.962006,12.98999l0,19.248993c0,1.891998 -1.529999,3.421997 -3.421997,3.421997s-3.421997,-1.529999 -3.421997,-3.421997l0,-20.667999c0,-1.028992 0.442993,-1.945984 1.169006,-2.559998l13.822998,-13.824982l-27.872009,-27.874023c-0.668976,-0.666992 -1.001984,-1.528992 -1.001984,-2.419983l0,-23.367004l-13.27002,0l0,98.252991c1.502014,0.502014 2.865021,1.308014 4.006012,2.365021l0.251007,0.25c1.945984,1.945984 3.17099,4.673981 3.17099,7.648987c0,3.005005 -1.225006,5.703003 -3.17099,7.678009c-1.976013,1.975983 -4.675018,3.171997 -7.678009,3.171997c-2.975998,0 -5.675003,-1.196014 -7.649002,-3.171997c-1.975998,-1.975006 -3.171005,-4.673004 -3.171005,-7.678009c0,-2.976013 1.195007,-5.703003 3.171005,-7.648987c1.167999,-1.16803 2.643005,-2.087006 4.227005,-2.615021l0,-57.303009l-9.541,13.46402l0,32.046997c0,1.891998 -1.529999,3.421997 -3.421997,3.421997s-3.422012,-1.529999 -3.422012,-3.421997l0,-33.131012c0,-0.808014 0.279007,-1.55899 0.779007,-2.143005l15.604996,-22.003998l0,-29.182007l-12.710999,0l0,23.367004c0,0.890991 -0.335007,1.752991 -1.001999,2.420013l-27.845993,27.873993l13.796997,13.825012c0.722992,0.612976 1.196991,1.529999 1.196991,2.559998l0,20.667999c0,1.891998 -1.557999,3.421997 -3.42099,3.421997c-1.891998,0 -3.422012,-1.529999 -3.422012,-3.421997l0,-19.249023l-12.98999,-12.98999l-6.037003,6.063995l0,4.701019c1.613007,0.526978 3.059006,1.444977 4.227005,2.613983c1.975998,1.975006 3.172989,4.673004 3.172989,7.649017c0,2.863983 -1.113998,5.47998 -2.921997,7.427002l-0.250992,0.250977c-1.945999,1.947021 -4.673004,3.171021 -7.649002,3.171021c-2.977997,0 -5.703003,-1.223999 -7.650009,-3.171021c-1.973999,-1.975983 -3.19899,-4.673981 -3.19899,-7.677979c0,-2.97702 1.224991,-5.702026 3.17099,-7.649017c1.197006,-1.169006 2.643005,-2.087006 4.257004,-2.613983l0,-6.121002c0,-0.945007 0.389008,-1.808014 1.001999,-2.420013l38.75,-38.75l0,-21.949005l-16.190994,0l0,17.692017c-0.028,0.889984 -0.361008,1.752991 -1,2.42099l-38.445007,38.416016l0,42.867981c1.501999,0.5 2.865997,1.334991 4.006012,2.391998l0.248993,0.223022c1.947998,1.974976 3.171997,4.672974 3.171997,7.676971c0,2.978027 -1.196991,5.675018 -3.171997,7.651001c-1.973999,1.975006 -4.673004,3.198029 -7.649002,3.198029s-5.703003,-1.22403 -7.651001,-3.198029c-1.973999,-1.97699 -3.19899,-4.673981 -3.19899,-7.651001c0,-3.003998 1.224991,-5.701996 3.17099,-7.676971c1.197006,-1.169006 2.643005,-2.059021 4.257004,-2.614014l0,-44.259003c0,-0.945007 0.360992,-1.80899 1.001999,-2.419983l20.917999,-20.920013c-4.785004,-4.394989 -15.606995,-14.048004 -15.632996,-14.075989c-1.447006,-1.223999 -1.613998,-3.365021 -0.389008,-4.813019c1.195007,-1.445007 3.365005,-1.613007 4.783005,-0.415985c0.056,0.054993 10.792999,9.735992 16.024002,14.520996l12.710999,-12.713013l0,-16.302002l-120.338989,0c-17.499001,0 -33.354004,-7.093994 -44.815002,-18.554993c-11.489998,-11.488007 -18.583,-27.31601 -18.583,-44.84201c0,-17.497986 7.093002,-33.325989 18.583,-44.81398c10.709,-10.738007 25.258003,-17.637009 41.420998,-18.5l-0.139999,-1.362c-0.111,-1.726013 -0.195,-3.450012 -0.195,-5.146011c0,-17.496994 7.094002,-33.325989 18.555016,-44.814987c11.126984,-11.098999 26.315987,-18.108994 43.116982,-18.554001"/></g></svg>