<?xml version="1.0" encoding="UTF-8" standalone="no"?>
<svg
   xmlns:dc="http://purl.org/dc/elements/1.1/"
   xmlns:cc="http://creativecommons.org/ns#"
   xmlns:rdf="http://www.w3.org/1999/02/22-rdf-syntax-ns#"
   xmlns:svg="http://www.w3.org/2000/svg"
   xmlns="http://www.w3.org/2000/svg"
   xmlns:sodipodi="http://sodipodi.sourceforge.net/DTD/sodipodi-0.dtd"
   xmlns:inkscape="http://www.inkscape.org/namespaces/inkscape"
   inkscape:version="1.0 (4035a4fb49, 2020-05-01)"
   sodipodi:docname="raspberry-pi-seeklogo.com.svg"
   id="svg32"
   preserveAspectRatio="xMidYMid"
   version="1.1"
   viewBox="0 0 256 327"
   height="327px"
   width="256px">
  <metadata
     id="metadata38">
    <rdf:RDF>
      <cc:Work
         rdf:about="">
        <dc:format>image/svg+xml</dc:format>
        <dc:type
           rdf:resource="http://purl.org/dc/dcmitype/StillImage" />
      </cc:Work>
    </rdf:RDF>
  </metadata>
  <defs
     id="defs36" />
  <sodipodi:namedview
     inkscape:current-layer="svg32"
     inkscape:window-maximized="1"
     inkscape:window-y="27"
     inkscape:window-x="0"
     inkscape:cy="163.11799"
     inkscape:cx="128"
     inkscape:zoom="2.617737"
     showgrid="false"
     id="namedview34"
     inkscape:window-height="1016"
     inkscape:window-width="1920"
     inkscape:pageshadow="2"
     inkscape:pageopacity="0"
     guidetolerance="10"
     gridtolerance="10"
     objecttolerance="10"
     borderopacity="1"
     bordercolor="#666666"
     pagecolor="#ffffff" />
  <g
     id="g30">
    <path
       id="path2"
       fill="#000000"
       d="M69.2981309,0.005 C67.6451309,0.056 65.8651309,0.667 63.8451309,2.26 C58.8991309,0.353 54.1021309,-0.31 49.8131309,3.573 C43.1901309,2.714 41.0381309,4.487 39.4071309,6.557 C37.9531309,6.527 28.5281309,5.062 24.2051309,11.51 C13.3431309,10.225 9.91013093,17.899 13.8001309,25.056 C11.5811309,28.49 9.28213093,31.883 14.4701309,38.431 C12.6351309,42.077 13.7731309,46.033 18.0961309,50.82 C16.9551309,55.947 19.1981309,59.563 23.2211309,62.382 C22.4681309,69.397 29.6541309,73.476 31.7991309,74.929 C32.6231309,79.016 34.3401309,82.874 42.5471309,85.006 C43.9011309,91.098 48.8331309,92.15 53.6101309,93.428 C37.8231309,102.605 24.2851309,114.678 24.3771309,144.303 L22.0641309,148.428 C3.96213093,159.436 -12.3238691,194.818 13.1441309,223.576 C14.8071309,232.578 17.5971309,239.044 20.0811309,246.2 C23.7961309,275.036 48.0431309,288.539 54.4391309,290.136 C63.8101309,297.274 73.7911309,304.047 87.2981309,308.792 C100.030131,321.923 113.824131,326.928 127.693131,326.92 C127.897131,326.92 155.970131,321.924 168.703131,308.792 C182.209131,304.047 192.190131,297.274 201.562131,290.136 C207.957131,288.539 232.204131,275.036 235.919131,246.2 C238.403131,239.044 241.193131,232.578 242.857131,223.576 C268.323131,194.815 252.038131,159.432 233.936131,148.424 L231.620131,144.299 C231.712131,114.677 218.174131,102.603 202.387131,93.424 C207.163131,92.146 212.096131,91.094 213.449131,85.002 C221.656131,82.869 223.374131,79.012 224.197131,74.925 C226.343131,73.472 233.528131,69.393 232.776131,62.378 C236.798131,59.559 239.041131,55.942 237.900131,50.816 C242.224131,46.029 243.361131,42.073 241.526131,38.426 C246.715131,31.882 244.413131,28.489 242.197131,25.055 C246.085131,17.898 242.654131,10.223 231.788131,11.509 C227.467131,5.061 218.044131,6.525 216.586131,6.555 C214.956131,4.486 212.804131,2.713 206.181131,3.572 C201.892131,-0.311 197.096131,0.351 192.149131,2.259 C186.275131,-2.376 182.388131,1.339 177.948131,2.744 C170.837131,0.42 169.210131,3.603 165.716131,4.9 C157.960131,3.261 155.603131,6.829 151.885131,10.595 L147.560131,10.509 C135.862131,17.403 130.050131,31.441 127.990131,38.658 C125.929131,31.44 120.131131,17.402 108.435131,10.509 L104.110131,10.595 C100.387131,6.829 98.0311309,3.261 90.2751309,4.9 C86.7801309,3.603 85.1591309,0.42 78.0421309,2.744 C75.1281309,1.822 72.4481309,-0.094 69.2931309,0.004 L-11,141" />
    <path
       id="path4"
       fill="#75A928"
       d="M46.008,30.334 C77.044,46.335 95.087,59.279 104.972,70.303 C99.91,90.592 73.502,91.518 63.846,90.949 C65.823,90.029 67.473,88.926 68.058,87.233 C65.635,85.511 57.044,87.051 51.046,83.682 C53.35,83.204 54.428,82.739 55.505,81.039 C49.839,79.232 43.735,77.674 40.145,74.68 C42.082,74.704 43.891,75.114 46.421,73.359 C41.346,70.624 35.93,68.456 31.722,64.275 C34.346,64.211 37.175,64.249 37.998,63.284 C33.353,60.406 29.433,57.206 26.189,53.705 C29.861,54.148 31.412,53.767 32.3,53.127 C28.788,49.53 24.344,46.493 22.225,42.061 C24.951,43.001 27.446,43.361 29.244,41.979 C28.051,39.287 22.939,37.699 19.995,31.408 C22.866,31.687 25.91,32.034 26.519,31.408 C25.187,25.98 22.901,22.928 20.659,19.766 C26.802,19.675 36.11,19.79 35.689,19.271 L31.89,15.39 C37.891,13.774 44.031,15.649 48.489,17.041 C50.49,15.462 48.453,13.465 46.011,11.426 C51.111,12.107 55.719,13.279 59.885,14.894 C62.11,12.885 58.44,10.875 56.664,8.866 C64.543,10.36 67.881,12.461 71.198,14.564 C73.605,12.257 71.336,10.296 69.712,8.288 C75.653,10.488 78.713,13.329 81.934,16.133 C83.026,14.659 84.709,13.578 82.677,10.022 C86.895,12.453 90.072,15.318 92.422,18.528 C95.032,16.866 93.977,14.594 93.991,12.499 C98.375,16.065 101.157,19.86 104.562,23.565 C105.248,23.065 105.848,21.372 106.379,18.693 C116.836,28.838 131.613,54.393 110.177,64.525 C91.934,49.479 70.146,38.542 46.001,30.338 L46.008,30.334" />
    <path
       id="path6"
       fill="#75A928"
       d="M210.686,30.334 C179.654,46.337 161.611,59.277 151.727,70.303 C156.789,90.592 183.196,91.518 192.852,90.949 C190.875,90.029 189.225,88.926 188.641,87.233 C191.064,85.511 199.655,87.051 205.652,83.682 C203.348,83.204 202.271,82.739 201.193,81.039 C206.86,79.232 212.964,77.674 216.553,74.68 C214.616,74.704 212.807,75.114 210.277,73.359 C215.353,70.624 220.769,68.456 224.977,64.275 C222.352,64.211 219.523,64.249 218.701,63.284 C223.346,60.406 227.266,57.206 230.51,53.705 C226.837,54.148 225.287,53.767 224.399,53.127 C227.91,49.53 232.355,46.493 234.474,42.061 C231.747,43.001 229.252,43.361 227.454,41.979 C228.647,39.287 233.76,37.699 236.703,31.408 C233.833,31.687 230.788,32.034 230.179,31.408 C231.514,25.978 233.8,22.926 236.042,19.764 C229.899,19.673 220.591,19.788 221.012,19.269 L224.811,15.387 C218.81,13.772 212.67,15.647 208.212,17.039 C206.211,15.46 208.247,13.463 210.689,11.424 C205.59,12.104 200.981,13.277 196.816,14.892 C194.59,12.883 198.261,10.873 200.037,8.864 C192.158,10.358 188.82,12.459 185.502,14.562 C183.095,12.255 185.365,10.294 186.989,8.286 C181.048,10.486 177.988,13.327 174.767,16.131 C173.674,14.657 171.992,13.576 174.023,10.02 C169.806,12.451 166.629,15.316 164.279,18.526 C161.669,16.864 162.724,14.591 162.71,12.497 C158.326,16.063 155.544,19.857 152.139,23.563 C151.453,23.063 150.853,21.37 150.322,18.69 C139.865,28.836 125.088,54.391 146.524,64.523 C164.757,49.473 186.544,38.538 210.69,30.334 L210.686,30.334" />
    <path
       id="path8"
       fill="#BC1142"
       d="M165.933,236.933 C166.041,255.866 149.484,271.295 128.953,271.394 C108.421,271.494 91.689,256.227 91.581,237.294 C91.58,237.174 91.58,237.054 91.581,236.933 C91.473,218.001 108.029,202.572 128.561,202.472 C149.093,202.372 165.824,217.639 165.933,236.572 L165.933,236.933" />
    <path
       id="path10"
       fill="#BC1142"
       d="M107.246,139.004 C122.65,149.097 125.427,171.973 113.448,190.099 C101.469,208.226 79.271,214.74 63.867,204.648 C48.463,194.555 45.687,171.679 57.665,153.553 C69.644,135.426 91.842,128.912 107.246,139.004" />
    <path
       id="path12"
       fill="#BC1142"
       d="M148.822,137.177 C133.419,147.269 130.642,170.146 142.62,188.272 C154.599,206.399 176.797,212.913 192.201,202.82 C207.605,192.728 210.382,169.852 198.403,151.725 C186.425,133.599 164.227,127.085 148.822,137.177" />
    <path
       id="path14"
       fill="#BC1142"
       d="M30.258,155.504 C46.889,151.046 35.873,224.307 22.341,218.296 C7.456,206.324 2.662,171.263 30.258,155.504" />
    <path
       id="path16"
       fill="#BC1142"
       d="M222.453,154.591 C205.82,150.134 216.838,223.398 230.37,217.387 C245.255,205.414 250.049,170.349 222.453,154.591" />
    <path
       id="path18"
       fill="#BC1142"
       d="M165.946,100.034 C194.647,95.188 218.529,112.24 217.565,143.362 C216.621,155.294 155.372,101.811 165.946,100.034" />
    <path
       id="path20"
       fill="#BC1142"
       d="M86.646,99.121 C57.943,94.274 34.063,111.33 35.027,142.45 C35.971,154.381 97.221,100.898 86.646,99.121" />
    <path
       id="path22"
       fill="#BC1142"
       d="M127.874,91.863 C110.744,91.417 94.304,104.576 94.264,112.209 C94.217,121.483 107.808,130.979 127.991,131.22 C148.601,131.367 161.753,123.619 161.819,114.048 C161.895,103.204 143.074,91.695 127.874,91.862 L127.874,91.863" />
    <path
       id="path24"
       fill="#BC1142"
       d="M128.92,282.043 C143.855,281.391 163.895,286.853 163.935,294.1 C164.183,301.136 145.76,317.034 127.93,316.727 C109.464,317.524 91.357,301.601 91.594,296.082 C91.317,287.99 114.078,281.672 128.92,282.043" />
    <path
       id="path26"
       fill="#BC1142"
       d="M73.756,239.098 C84.389,251.908 89.237,274.414 80.363,281.049 C71.968,286.114 51.581,284.028 37.091,263.211 C27.318,245.743 28.577,227.968 35.439,222.746 C45.7,216.496 61.554,224.939 73.757,239.098 L73.756,239.098" />
    <path
       id="path28"
       fill="#BC1142"
       d="M181.956,235.037 C170.451,248.512 164.045,273.09 172.437,281.006 C180.462,287.156 202.004,286.296 217.916,264.217 C229.47,249.388 225.599,224.623 218.999,218.047 C209.195,210.464 195.12,220.169 181.956,235.033 L181.956,235.037" />
  </g>
  <path
     id="path863"
     d="m 120.74182,130.79742 c -12.11987,-1.61919 -21.513199,-6.61861 -25.086796,-13.35196 -2.155698,-4.06175 -1.997853,-6.84248 0.602982,-10.62266 2.837863,-4.12469 7.197374,-7.639227 13.214544,-10.65325 6.74377,-3.377983 13.29486,-4.78488 20.24649,-4.348096 16.65093,1.046209 33.52397,13.315746 32.14519,23.374966 -0.73651,5.37349 -5.73605,10.18848 -13.61773,13.11507 -7.262,2.69649 -18.39613,3.70281 -27.50468,2.48593 z"
     style="fill:#0088cc;stroke-width:0.382009;fill-opacity:1" />
  <path
     id="path865"
     d="m 170.29072,207.24472 c -4.0011,-0.70878 -6.27361,-1.4811 -10.58394,-3.597 -15.86199,-7.78648 -26.06162,-25.71709 -24.43314,-42.95265 1.22284,-12.94225 9.0269,-23.22522 20.42204,-26.90895 11.89733,-3.84608 26.24466,0.17204 36.39381,10.19246 6.52053,6.43782 10.58081,13.5873 12.93053,22.7685 1.07993,4.2197 0.99296,13.86739 -0.16331,18.11454 -3.0322,11.13774 -10.88389,19.19303 -21.27435,21.82601 -3.95236,1.00155 -9.47583,1.23305 -13.29164,0.55709 z"
     style="fill:#0088cc;fill-opacity:1;stroke-width:0.382009" />
  <path
     id="path867"
     d="m 79.437256,209.56538 c -0.0789,-0.0695 -1.346777,-0.225 -2.817513,-0.34563 -3.719661,-0.30508 -6.686757,-1.17008 -10.093868,-2.94265 -5.802428,-3.01875 -10.043258,-7.41801 -13.010672,-13.49672 -2.448393,-5.0155 -3.219714,-8.63328 -3.229171,-15.14603 -0.0045,-3.12218 0.207278,-6.53926 0.485426,-7.8312 3.433728,-15.94889 14.617407,-28.97446 28.961093,-33.73084 8.466438,-2.80748 16.581478,-2.53422 23.851059,0.80313 14.10265,6.47431 20.74489,23.51462 15.81318,40.5679 -1.06111,3.66922 -3.50622,9.13131 -5.44656,12.16703 -6.33699,9.91441 -17.194389,17.50414 -27.589249,19.28594 -2.813607,0.48228 -6.708407,0.85866 -6.923725,0.66907 z"
     style="fill:#0088cc;fill-opacity:1;stroke-width:0.382009" />
  <path
     id="path869"
     d="m 125.13493,271.37871 c -13.53546,-1.33706 -25.04946,-9.05305 -30.508706,-20.44511 -4.283348,-8.93827 -4.212274,-19.68246 0.187954,-28.41316 2.766023,-5.48819 6.818382,-10.09742 11.793302,-13.41393 6.97308,-4.64857 13.63669,-6.64156 22.20625,-6.64156 17.54691,0 32.33385,10.92695 36.44538,26.93166 0.94908,3.69446 0.94754,11.23768 -0.003,14.89837 -0.89119,3.43193 -2.77531,7.82701 -4.53379,10.57596 -6.08623,9.51431 -17.96236,16.03722 -30.04821,16.50385 -2.2061,0.0852 -4.69871,0.0869 -5.53913,0.004 z"
     style="fill:#0088cc;fill-opacity:1;stroke-width:0.382009" />
  <path
     id="path871"
     d="m 65.257718,283.07844 c -3.979709,-0.71915 -10.201943,-3.26564 -14.2988,-5.85187 -1.856905,-1.17221 -6.33607,-4.90675 -8.098257,-6.75198 -2.685659,-2.81223 -5.868028,-7.08449 -7.090258,-9.51853 -6.731092,-13.40477 -7.781722,-28.27967 -2.544989,-36.03216 0.930233,-1.37713 1.811587,-2.09237 3.760729,-3.05193 2.356225,-1.15996 2.817175,-1.25138 6.191315,-1.22788 5.608477,0.0391 10.698917,1.88343 17.056557,6.17995 4.526615,3.05912 5.76527,4.10709 10.335857,8.74477 6.612811,6.70988 10.722162,13.98745 13.090425,23.18286 3.191169,12.39056 1.002771,21.15766 -5.894526,23.61448 -2.561178,0.9123 -9.282972,1.29507 -12.508053,0.71229 z"
     style="fill:#0088cc;fill-opacity:1;stroke-width:0.382009" />
  <path
     id="path873"
     d="m 122.07886,316.52056 c -6.41401,-0.90884 -12.75352,-3.36321 -18.70176,-7.24047 -3.784922,-2.46714 -4.594549,-3.12809 -7.730908,-6.31127 -2.976042,-3.02046 -4.47788,-5.86768 -4.115095,-7.80149 0.995773,-5.30793 12.808193,-10.72175 27.636943,-12.66646 18.49008,-2.42488 40.59001,2.37077 44.31215,9.61566 1.34519,2.61832 -0.43636,6.78744 -4.71436,11.0324 -10.16756,10.08903 -24.07638,15.15851 -36.68697,13.37163 z"
     style="fill:#0088cc;fill-opacity:1;stroke-width:0.382009" />
  <path
     id="path875"
     d="m 179.64057,284.00575 c -7.40029,-1.2991 -10.55986,-5.02055 -11.0427,-13.00646 -0.68963,-11.40601 5.16138,-26.73746 14.05621,-36.8316 8.22297,-9.33169 16.37805,-15.62677 23.23749,-17.9375 3.46008,-1.1656 7.64354,-1.12318 10.39914,0.10544 2.6825,1.19602 3.91448,2.49355 5.48803,5.78001 4.41206,9.21484 4.8061,23.27117 0.9419,33.59917 -1.04356,2.78917 -3.49361,7.14822 -5.28318,9.39968 -6.46788,8.13722 -11.85868,12.62989 -19.15898,15.96704 -3.98114,1.81987 -6.84749,2.61587 -11.06703,3.07335 -4.09499,0.44398 -4.20449,0.44182 -7.57088,-0.14913 z"
     style="fill:#0088cc;fill-opacity:1;stroke-width:0.382009" />
  <path
     id="path877"
     d="m 225.09629,215.93078 c -8.94968,-8.98329 -14.58252,-46.58513 -8.71265,-58.16092 1.07479,-2.11957 2.92563,-3.43808 4.82614,-3.43808 2.75968,0 10.91612,6.75859 14.34578,11.88722 4.84641,7.24718 6.81606,13.82319 6.79452,22.68462 -0.0264,10.84502 -3.68635,20.58406 -10.11299,26.91012 -1.75992,1.73238 -2.13611,1.93159 -3.64767,1.93159 -1.50224,0 -1.88182,-0.19718 -3.49313,-1.81455 z"
     style="fill:#0088cc;fill-opacity:1;stroke-width:0.382009" />
  <path
     id="path879"
     d="m 212.34672,144.39222 c -4.97665,-2.02147 -11.99077,-6.74971 -20.93317,-14.11112 -15.22791,-12.53567 -26.7361,-24.91835 -26.73967,-28.77157 -0.001,-1.39519 0.82162,-1.686832 6.2148,-2.202502 16.47802,-1.575551 31.86464,5.147862 39.81284,17.396832 4.44493,6.85007 6.45192,13.32813 6.92778,22.36107 0.2226,4.22544 0.17524,4.86568 -0.40272,5.44363 -0.84403,0.84404 -2.61971,0.80171 -4.87986,-0.11634 z"
     style="fill:#0088cc;fill-opacity:1;stroke-width:0.382009" />
  <path
     id="path881"
     d="m 35.541215,143.62299 c -0.825454,-0.82546 -0.852952,-1.05321 -0.63937,-5.29563 0.484208,-9.61795 3.216415,-17.65437 8.314817,-24.45694 7.427723,-9.91048 19.88074,-15.682791 33.85295,-15.691766 3.216301,-0.0021 8.530857,0.520528 10.15089,0.998162 1.854957,0.546898 -0.131923,4.842704 -4.569297,9.879244 -3.210892,3.64444 -11.535783,11.93795 -14.435668,14.38124 -0.84042,0.7081 -1.613989,1.39077 -1.719042,1.51705 -0.457308,0.54972 -7.407187,6.18399 -11.078271,8.98116 -7.509613,5.72193 -14.523722,9.82128 -17.681207,10.33367 -1.055711,0.17132 -1.512807,0.0368 -2.195802,-0.64619 z"
     style="fill:#0088cc;fill-opacity:1;stroke-width:0.382009" />
  <path
     id="path883"
     d="m 22.94743,218.61076 c -2.017102,-0.77542 -5.435522,-4.76101 -7.972267,-9.295 -1.629978,-2.9133 -3.288295,-7.86026 -4.076277,-12.16004 -0.88332,-4.82 -0.61102,-13.37269 0.56679,-17.80233 1.578283,-5.93579 5.408663,-12.68255 9.632983,-16.96735 2.77604,-2.81578 7.680974,-6.41168 9.481646,-6.95118 2.997947,-0.89821 5.746958,1.75891 7.158408,6.91911 0.977665,3.5743 0.973179,19.31182 -0.0073,25.51937 -1.504344,9.52447 -3.631376,17.36365 -6.218658,22.91887 -1.976775,4.24438 -3.553909,6.33757 -5.537605,7.34958 -1.509296,0.76998 -2.033501,0.85118 -3.027747,0.46897 z"
     style="fill:#0088cc;fill-opacity:1;stroke-width:0.382009" />
  <path
     id="path885"
     d="m 64.283821,91.069825 c -0.314291,-0.143903 0.115596,-0.612377 1.183247,-1.289461 1.819384,-1.153818 2.49833,-2.241696 1.710882,-2.741345 -0.269748,-0.17116 -0.662354,-0.3174 -0.872459,-0.324983 -3.319727,-0.119798 -11.23877,-1.280564 -13.084541,-1.91792 -2.515766,-0.868709 -2.740913,-1.275361 -0.908972,-1.641747 0.611465,-0.122292 1.579995,-0.625116 2.152288,-1.117381 l 1.040533,-0.895028 -4.149888,-1.257843 c -4.589839,-1.391194 -9.974698,-3.764205 -10.786324,-4.753342 -0.476057,-0.580177 -0.367092,-0.638953 1.184526,-0.638953 0.939847,0 2.276539,-0.197911 2.970426,-0.439799 1.198052,-0.417643 1.224982,-0.467347 0.534516,-0.986505 -0.399903,-0.300687 -2.102331,-1.239888 -3.783172,-2.087112 -3.657094,-1.843355 -7.671639,-4.451291 -8.948307,-5.813021 l -0.92611,-0.987815 1.499124,-0.0314 c 2.027245,-0.04248 3.725815,-0.333338 4.099969,-0.702064 0.169834,-0.16737 -0.539074,-0.848382 -1.575349,-1.513357 -1.036276,-0.664975 -2.292608,-1.551298 -2.791849,-1.969598 -3.273838,-2.743076 -5.631912,-4.867663 -6.142245,-5.53407 -0.580877,-0.758522 -0.542244,-0.773516 2.024479,-0.78566 1.439161,-0.0068 2.746641,-0.142363 2.905509,-0.301233 0.158869,-0.158867 -1.373946,-1.909001 -3.406255,-3.88918 -3.328149,-3.24279 -6.32603,-6.879714 -5.966901,-7.238842 0.07545,-0.07545 0.964536,0.03928 1.975748,0.254946 1.890898,0.40329 4.261131,0.176452 4.64492,-0.444531 0.119265,-0.192975 -0.503857,-1.002862 -1.384716,-1.799748 -4.827893,-4.367646 -5.646846,-5.237401 -6.626775,-7.037854 l -1.071201,-1.96815 3.072503,0.268018 c 1.689877,0.14741 3.16066,0.125377 3.268407,-0.04896 0.200521,-0.324448 -0.885751,-3.744935 -1.733737,-5.459248 -0.259822,-0.525263 -1.206875,-2.091797 -2.104563,-3.481186 -0.897688,-1.389389 -1.63216,-2.635695 -1.63216,-2.769568 0,-0.133873 3.26618,-0.243405 7.258177,-0.243405 3.991998,0 7.258178,-0.123024 7.258178,-0.273386 0,-0.150362 -0.800259,-1.085861 -1.778353,-2.078887 l -1.778353,-1.805502 1.109836,-0.308671 c 2.250726,-0.625979 8.213455,-0.237913 11.997104,0.780794 3.283688,0.884098 3.672978,0.91938 4.09023,0.370699 0.612073,-0.804865 -0.18431,-2.37321 -1.886104,-3.714371 l -1.249103,-0.9844 1.146028,-7.64e-4 c 1.522197,-0.001 8.821442,1.667395 10.665369,2.437837 3.482752,1.455187 3.879453,0.07908 0.890414,-3.088734 l -2.005549,-2.1255024 1.67887,0.2812493 c 2.757244,0.4619012 7.85588,2.3298361 10.351013,3.7921921 2.705122,1.585429 2.897972,1.620888 3.42811,0.63032 0.491309,-0.918024 0.06716,-2.122555 -1.333603,-3.7872711 -0.572074,-0.6798718 -0.975323,-1.3009424 -0.89611,-1.3801568 0.07921,-0.079214 1.370684,0.4241511 2.869933,1.1185899 2.681882,1.242223 6.126227,3.558673 8.321001,5.596179 l 1.116647,1.036632 0.697897,-0.887235 c 0.779276,-0.990687 0.912788,-2.898496 0.284941,-4.071638 -0.227128,-0.424392 -0.340947,-0.843636 -0.252929,-0.931653 0.379305,-0.3793072 5.00731,3.051846 7.347266,5.447187 l 2.549137,2.609459 0.732874,-0.901842 c 0.499592,-0.614774 0.732873,-1.496361 0.732873,-2.769567 0,-1.02725 0.147395,-1.867727 0.327546,-1.867727 0.382881,0 5.992116,5.78431 8.418486,8.681238 0.91951,1.097841 1.81817,1.905636 1.99702,1.795102 0.17885,-0.110535 0.5975,-1.137697 0.93032,-2.282582 0.5622,-1.933913 1.07376,-2.575 1.37862,-1.727683 0.07,0.194659 0.90172,1.183109 1.84819,2.196554 4.45915,4.77469 8.51489,11.486151 10.56754,17.487232 1.37297,4.013976 1.67395,5.67704 1.68664,9.319329 0.0182,5.228348 -1.69122,9.551162 -4.98521,12.606499 -1.1932,1.106758 -5.35372,3.877582 -5.82237,3.877582 -0.18875,0 -1.49435,-0.912605 -2.90134,-2.028011 C 102.04897,58.252547 96.047925,54.143861 89.99007,50.579729 88.309229,49.59081 86.147148,48.293109 85.185447,47.695948 82.613496,46.098912 70.089286,39.926325 65.400098,37.944688 59.993753,35.659986 50.747933,32.087014 50.26495,32.095835 c -0.212223,0.0039 1.075325,0.798913 2.861218,1.766749 6.649748,3.603723 15.430145,8.600095 18.718458,10.651497 0.735368,0.458757 2.960221,1.840773 4.944114,3.071149 8.658807,5.370028 18.45313,12.898752 24.76937,19.039785 3.94294,3.833571 3.93443,3.806238 2.31062,7.415382 -2.39601,5.32544 -6.48608,9.395749 -12.350623,12.290933 -4.208902,2.077837 -7.709219,3.151146 -13.126719,4.02508 -3.800019,0.613007 -13.279848,1.092402 -14.107567,0.713418 z"
     style="fill:#0088cc;fill-opacity:1;stroke-width:0.382009" />
  <path
     id="path887"
     d="m 181.0993,90.716092 c -15.42533,-1.747361 -25.99402,-8.582784 -29.04484,-18.785088 -0.46851,-1.566758 -0.44923,-1.641059 0.79298,-3.056075 6.80196,-7.7482 24.53823,-20.515105 41.81319,-30.097948 5.90472,-3.275494 7.88765,-4.353912 10.19503,-5.544598 1.40516,-0.72511 2.50968,-1.363539 2.45449,-1.41873 -0.14514,-0.145137 -11.21744,4.07876 -15.70559,5.99142 -14.55491,6.20268 -30.54045,15.494242 -41.40522,24.066696 l -3.58628,2.829628 -2.06439,-1.116709 c -2.56493,-1.387473 -5.82015,-4.599213 -7.16399,-7.068289 -3.95554,-7.267632 -1.70574,-18.551682 5.86049,-29.393735 2.96104,-4.243043 6.37979,-8.404206 6.90475,-8.404206 0.13701,0 0.54714,0.945473 0.9114,2.101051 0.36427,1.155579 0.79925,2.101052 0.96664,2.101052 0.16739,0 1.29748,-1.074402 2.51133,-2.387559 1.21384,-1.313157 3.51774,-3.731174 5.11977,-5.373371 l 2.91279,-2.985813 0.191,2.450971 c 0.31358,4.02388 0.70899,4.111728 3.9444,0.876324 2.21602,-2.216026 6.60367,-5.56887 7.28761,-5.56887 0.0764,0 -0.0964,0.682913 -0.38394,1.517585 -0.55933,1.623457 -0.30968,2.90692 0.73388,3.772999 0.49024,0.40687 0.96874,0.171494 3.00036,-1.475918 2.71039,-2.197802 6.35621,-4.4501811 7.78292,-4.8082631 0.51951,-0.1303877 1.03903,-0.3899293 1.1545,-0.5767591 0.11547,-0.1868298 0.38045,-0.3396905 0.58885,-0.3396905 0.20839,0 -0.038,0.5586886 -0.54763,1.2415303 -1.65569,2.2185894 -1.89691,2.9175984 -1.41135,4.0898294 l 0.43904,1.05994 2.85682,-1.628029 c 3.61505,-2.060128 11.60945,-4.6241553 11.60945,-3.7234774 0,0.185064 -0.77357,1.0737384 -1.71905,1.9748324 -1.10859,1.056555 -1.71904,1.965264 -1.71904,2.558943 0,1.08089 0.44217,1.135035 2.71643,0.332632 2.57119,-0.907173 7.16597,-2.000999 9.66392,-2.300581 l 2.25709,-0.270696 -1.77958,1.705139 c -0.97877,0.937827 -1.77959,1.971414 -1.77959,2.296861 0,1.303388 0.88564,1.381243 4.58412,0.402983 2.71926,-0.719256 4.65671,-0.968921 7.72805,-0.995864 5.2177,-0.04577 5.6488,0.273101 3.4282,2.535726 -0.88331,0.900029 -1.60602,1.758838 -1.60602,1.908464 0,0.149626 3.26618,0.272048 7.25818,0.272048 3.99199,0 7.25817,0.08059 7.25817,0.179092 0,0.0985 -0.78547,1.39331 -1.74549,2.877353 -1.77479,2.743551 -3.29128,5.86878 -3.73417,7.695491 -0.32525,1.341522 0.34889,1.572492 3.64244,1.247954 1.43068,-0.140976 2.60124,-0.134312 2.60124,0.01481 0,0.791305 -2.98037,4.576383 -4.87269,6.188324 -3.47043,2.95623 -4.39063,4.011227 -3.91422,4.487634 0.49773,0.497731 3.50031,0.550778 5.30067,0.09365 l 1.28888,-0.327259 -0.88254,1.570262 c -0.70967,1.26269 -4.0983,4.870037 -8.22632,8.757276 -0.29483,0.277637 -0.53607,0.656632 -0.53607,0.842212 0,0.515763 2.51675,0.873847 4.31577,0.614046 l 1.60538,-0.231838 -3.12382,2.974474 c -1.7181,1.635959 -4.42542,3.850097 -6.01627,4.920307 -3.24105,2.180353 -3.20287,2.302107 0.84019,2.679654 l 2.40577,0.224652 -0.87303,0.931316 c -1.33249,1.421449 -5.42661,4.019571 -9.56374,6.069136 -2.04853,1.014853 -3.72459,1.96148 -3.72459,2.103614 0,0.462705 2.36553,1.097185 4.09065,1.097185 0.95243,0 1.58826,0.155848 1.46296,0.358592 -0.55388,0.896186 -4.95303,2.959384 -9.80064,4.596497 l -5.3008,1.790157 0.85831,0.801161 c 0.47208,0.44064 1.33269,0.918901 1.91246,1.062804 1.60549,0.398489 1.57558,0.799388 -0.10997,1.473811 -2.05766,0.82331 -4.22342,1.276499 -7.43832,1.556481 -3.79284,0.330316 -5.98024,0.592761 -6.96398,0.835543 -0.71273,0.175896 -0.78627,0.332734 -0.45035,0.960402 0.22081,0.412597 1.16572,1.234845 2.0998,1.827219 1.28162,0.812775 1.54848,1.134549 1.08762,1.311396 -0.95542,0.366634 -6.42093,0.196613 -11.24447,-0.349794 z"
     style="fill:#0088cc;fill-opacity:1;stroke-width:0.382009" />
</svg>
