<?xml version="1.0" encoding="UTF-8" standalone="no"?>
<svg
   xmlns:dc="http://purl.org/dc/elements/1.1/"
   xmlns:cc="http://creativecommons.org/ns#"
   xmlns:rdf="http://www.w3.org/1999/02/22-rdf-syntax-ns#"
   xmlns:svg="http://www.w3.org/2000/svg"
   xmlns="http://www.w3.org/2000/svg"
   xmlns:sodipodi="http://sodipodi.sourceforge.net/DTD/sodipodi-0.dtd"
   xmlns:inkscape="http://www.inkscape.org/namespaces/inkscape"
   inkscape:version="1.0 (4035a4fb49, 2020-05-01)"
   sodipodi:docname="videoedit.svg"
   id="svg12"
   width="16px"
   viewBox="0 0 16 18"
   version="1.1"
   height="18px">
  <metadata
     id="metadata16">
    <rdf:RDF>
      <cc:Work
         rdf:about="">
        <dc:format>image/svg+xml</dc:format>
        <dc:type
           rdf:resource="http://purl.org/dc/dcmitype/StillImage" />
      </cc:Work>
    </rdf:RDF>
  </metadata>
  <sodipodi:namedview
     inkscape:current-layer="svg12"
     inkscape:window-maximized="1"
     inkscape:window-y="27"
     inkscape:window-x="0"
     inkscape:cy="9.8222419"
     inkscape:cx="8.8108627"
     inkscape:zoom="32.206543"
     showgrid="false"
     id="namedview14"
     inkscape:window-height="1016"
     inkscape:window-width="1920"
     inkscape:pageshadow="2"
     inkscape:pageopacity="0"
     guidetolerance="10"
     gridtolerance="10"
     objecttolerance="10"
     borderopacity="1"
     bordercolor="#666666"
     pagecolor="#ffffff" />
  <title
     id="title2" />
  <desc
     id="desc4" />
  <defs
     id="defs6" />
  <g
     stroke-width="1"
     stroke="none"
     id="Page-1"
     fill-rule="evenodd"
     fill="none">
    <g
       transform="translate(-214.000000, -465.000000)"
       id="Core"
       fill="#000000">
      <g
         transform="translate(214.000000, 465.000000)"
         id="theaters">
        <path
           style="fill:#0088cc;fill-opacity:1"
           id="Shape"
           d="M14,0 L14,2 L12,2 L12,0 L4,0 L4,2 L2,2 L2,0 L0,0 L0,18 L2,18 L2,16 L4,16 L4,18 L12,18 L12,16 L14,16 L14,18 L16,18 L16,0 L14,0 L14,0 Z M4,14 L2,14 L2,12 L4,12 L4,14 L4,14 Z M4,10 L2,10 L2,8 L4,8 L4,10 L4,10 Z M4,6 L2,6 L2,4 L4,4 L4,6 L4,6 Z M14,14 L12,14 L12,12 L14,12 L14,14 L14,14 Z M14,10 L12,10 L12,8 L14,8 L14,10 L14,10 Z M14,6 L12,6 L12,4 L14,4 L14,6 L14,6 Z" />
      </g>
    </g>
  </g>
</svg>
